<?xml version="1.0" encoding="iso-8859-1"?><svg viewBox="0 0 512.17 512.17" xmlns="http://www.w3.org/2000/svg" xmlns:xlink="http://www.w3.org/1999/xlink"><style>:root>svg{display:none}:root>svg:target{display:block}</style><svg viewBox="0 0 502.664 502.664" id="icon" xmlns="http://www.w3.org/2000/svg"><g fill="#010002"><path d="M153.821 358.226L0 274.337v-46.463l153.821-83.414v54.574L46.636 250.523l107.185 53.431v54.272zM180.094 387.584L282.103 115.08h32.227L212.084 387.584h-31.99zM348.843 358.226v-54.272l107.164-52.999-107.164-52.59v-53.927l153.821 83.522v46.183l-153.821 84.083z"/></g></svg><svg viewBox="0 0 512.171 512.171" id="up-arrow" xmlns="http://www.w3.org/2000/svg"><path d="M476.723 216.64L263.305 3.115A10.652 10.652 0 00255.753 0a10.675 10.675 0 00-7.552 3.136L35.422 216.64c-3.051 3.051-3.947 7.637-2.304 11.627a10.67 10.67 0 009.856 6.571h117.333v266.667c0 5.888 4.779 10.667 10.667 10.667h170.667c5.888 0 10.667-4.779 10.667-10.667V234.837h116.885c4.309 0 8.192-2.603 9.856-6.592 1.664-3.989.725-8.554-2.326-11.605z"/></svg></svg>